<svg xmlns="http://www.w3.org/2000/svg" xmlns:xlink="http://www.w3.org/1999/xlink" width="500" zoomAndPan="magnify" viewBox="0 0 375 374.999991" height="500" preserveAspectRatio="xMidYMid meet" version="1.0"><defs><g/></defs><path fill="#ffde59" d="M 224.410156 139.171875 C 223.003906 133.253906 218.808594 128.109375 213.636719 125.003906 C 207.082031 121.074219 199.171875 120.066406 191.636719 120.410156 C 185.164062 120.703125 178.714844 121.871094 172.742188 124.445312 C 161.8125 129.167969 153.425781 139.492188 154.328125 151.855469 C 154.566406 154.988281 155.414062 158.066406 157.035156 160.746094 C 158.945312 163.878906 161.679688 166.132812 164.625 168.230469 C 170.382812 172.289062 177.839844 178.765625 175.714844 186.433594 C 175.425781 186.378906 175.132812 186.328125 174.8125 186.273438 C 172.71875 185.902344 172 189.566406 174.125 190.015625 C 180.28125 191.316406 186.621094 191.898438 192.910156 191.394531 C 193.972656 191.316406 195.300781 190.597656 195.191406 189.300781 C 194.609375 182.320312 197.105469 175.316406 202.359375 170.589844 C 205.117188 168.125 208.355469 166.292969 211.40625 164.195312 C 214.21875 162.257812 216.792969 160.109375 218.996094 157.507812 C 223.402344 152.492188 225.976562 145.832031 224.410156 139.171875 Z M 215.386719 155.121094 C 210.265625 160.851562 202.675781 163.480469 197.582031 169.210938 C 193.125 174.226562 190.839844 180.621094 190.839844 187.230469 C 186.222656 187.496094 181.660156 187.335938 177.070312 186.671875 C 178.714844 182.109375 177.441406 176.960938 174.734375 172.898438 C 172.875 170.113281 170.410156 167.964844 167.808594 165.894531 C 165.289062 163.90625 162.582031 161.941406 160.910156 159.101562 C 155.203125 149.46875 160.484375 137.261719 169.027344 131.398438 C 174.015625 127.976562 179.960938 126.171875 185.878906 125.269531 C 192.699219 124.234375 200.074219 124.234375 206.683594 126.488281 C 212.335938 128.425781 217.484375 132.460938 219.632812 138.191406 C 221.886719 144.242188 219.527344 150.503906 215.386719 155.121094 Z M 215.386719 155.121094 " fill-opacity="1" fill-rule="nonzero"/><path fill="#ffde59" d="M 194.105469 158.890625 C 191.742188 158.542969 190.496094 160.480469 189.671875 162.367188 C 189.648438 162.339844 189.648438 162.339844 189.621094 162.3125 C 191.71875 158.464844 192.964844 153.128906 190.097656 149.628906 C 189.539062 148.9375 188.53125 148.992188 187.894531 149.496094 C 186.039062 150.953125 185.746094 153.421875 185.535156 155.652344 C 185.320312 157.722656 185.375 159.871094 186.171875 161.78125 C 185.90625 162.179688 185.640625 162.550781 185.320312 162.894531 C 184.472656 159.550781 182.242188 156.078125 178.394531 157.800781 C 174.894531 159.394531 174.523438 164.542969 177.492188 166.796875 C 179.113281 168.015625 180.917969 168.308594 182.667969 167.964844 C 182.855469 172.660156 182.109375 177.171875 181.074219 181.738281 C 180.8125 182.851562 182.269531 183.300781 182.746094 182.265625 C 182.800781 182.160156 182.828125 182.082031 182.878906 181.976562 C 183.199219 183.195312 185.242188 183.59375 185.667969 182.082031 C 186.59375 178.660156 187.628906 175.261719 188.746094 171.890625 C 189.277344 170.324219 189.804688 168.761719 190.363281 167.195312 C 190.523438 166.742188 190.683594 166.265625 190.839844 165.789062 C 191.210938 165.839844 191.585938 165.867188 191.980469 165.839844 C 193.867188 165.707031 195.722656 164.542969 196.28125 162.683594 C 196.785156 161.066406 195.960938 159.15625 194.105469 158.890625 Z M 188.507812 154.140625 C 188.613281 155.175781 188.480469 156.261719 188.1875 157.324219 C 188.214844 157.003906 188.214844 156.6875 188.265625 156.367188 C 188.320312 155.730469 188.347656 154.910156 188.507812 154.140625 Z M 179.191406 162.339844 C 179.5625 160.90625 180.679688 160.828125 181.472656 162.046875 C 181.976562 162.816406 182.242188 163.71875 182.429688 164.648438 C 182.242188 164.675781 182.03125 164.699219 181.820312 164.699219 C 180.414062 164.78125 178.765625 163.984375 179.191406 162.339844 Z M 185.242188 173.988281 C 185.640625 171.574219 185.800781 169.105469 185.773438 166.71875 C 186.675781 166.132812 187.496094 165.390625 188.160156 164.566406 C 188.292969 164.699219 188.453125 164.804688 188.585938 164.914062 C 187.390625 167.882812 186.277344 170.9375 185.242188 173.988281 Z M 193.761719 162.285156 C 193.496094 162.949219 192.488281 163.320312 191.769531 163.320312 C 191.929688 162.976562 192.089844 162.65625 192.246094 162.339844 C 192.433594 161.886719 192.726562 161.515625 193.148438 161.222656 C 193.972656 161.332031 194.183594 161.675781 193.761719 162.285156 Z M 193.761719 162.285156 " fill-opacity="1" fill-rule="nonzero"/><path fill="#ffde59" d="M 192.035156 194.84375 C 190.628906 194.261719 188.984375 194.316406 187.472656 194.234375 C 185.800781 194.15625 184.128906 194.128906 182.457031 194.207031 C 179.484375 194.339844 176.195312 194.394531 173.40625 195.457031 C 171.949219 196.011719 172.769531 197.921875 173.964844 198.109375 C 176.882812 198.535156 179.960938 198.1875 182.933594 198.402344 C 184.367188 198.507812 185.824219 198.613281 187.257812 198.800781 C 188.796875 198.984375 190.257812 199.355469 191.824219 199.144531 C 194.210938 198.824219 193.867188 195.613281 192.035156 194.84375 Z M 192.035156 194.84375 " fill-opacity="1" fill-rule="nonzero"/><path fill="#ffde59" d="M 188 201.371094 C 186.066406 200.390625 183.304688 200.789062 181.207031 200.789062 C 178.714844 200.789062 176.273438 200.976562 173.804688 201.320312 C 172.292969 201.53125 172.769531 203.523438 174.015625 203.761719 C 175.796875 204.078125 177.546875 204.371094 179.324219 204.636719 C 178.742188 205.617188 178.449219 206.761719 178.632812 207.792969 C 179.351562 211.667969 184.179688 213.207031 187.3125 211.136719 C 190.308594 209.09375 191.902344 203.308594 188 201.371094 Z M 183.648438 206.945312 C 182.722656 206.8125 183.78125 206.042969 184.367188 205.882812 C 184.738281 205.777344 185.003906 205.59375 185.214844 205.351562 C 185.296875 205.351562 185.347656 205.328125 185.320312 205.300781 C 185.746094 206.230469 184.3125 207.050781 183.648438 206.945312 Z M 183.648438 206.945312 " fill-opacity="1" fill-rule="nonzero"/><path fill="#ffde59" d="M 174.148438 112.957031 C 174.523438 114.945312 177.46875 114.628906 177.601562 112.664062 C 177.890625 108.789062 177.175781 104.703125 176.882812 100.828125 C 176.589844 97.007812 176.433594 93.160156 175.902344 89.363281 C 175.6875 87.851562 173.273438 88.066406 173.246094 89.578125 C 173.140625 93.503906 173.433594 97.457031 173.566406 101.386719 C 173.699219 105.179688 173.460938 109.214844 174.148438 112.957031 Z M 174.148438 112.957031 " fill-opacity="1" fill-rule="nonzero"/><path fill="#ffde59" d="M 147.71875 127.578125 C 145.96875 126.59375 144.269531 125.558594 142.597656 124.445312 C 139.308594 122.269531 136.175781 119.828125 133.230469 117.203125 C 131.613281 115.742188 129.011719 117.945312 130.632812 119.511719 C 133.628906 122.402344 136.789062 125.082031 140.183594 127.46875 C 141.804688 128.636719 143.476562 129.726562 145.199219 130.761719 C 146.949219 131.824219 148.835938 133.230469 150.90625 133.386719 C 152.46875 133.519531 153.320312 131.53125 152.3125 130.417969 C 151.144531 129.089844 149.257812 128.453125 147.71875 127.578125 Z M 147.71875 127.578125 " fill-opacity="1" fill-rule="nonzero"/><path fill="#ffde59" d="M 144.988281 153.609375 C 146.871094 153.078125 146.738281 150.265625 144.695312 150.160156 C 140.792969 149.921875 136.574219 151.113281 132.808594 152.097656 C 130.921875 152.601562 129.09375 153.128906 127.261719 153.769531 C 125.402344 154.40625 123.414062 154.960938 121.820312 156.128906 C 120.519531 157.085938 121.820312 158.78125 123.09375 158.625 C 124.871094 158.410156 126.597656 157.617188 128.324219 157.085938 C 130.179688 156.527344 132.039062 156.023438 133.921875 155.597656 C 137.53125 154.777344 141.378906 154.617188 144.988281 153.609375 Z M 144.988281 153.609375 " fill-opacity="1" fill-rule="nonzero"/><path fill="#ffde59" d="M 211.378906 114.8125 C 214.722656 108.921875 218.675781 103.640625 223.773438 99.15625 C 225.84375 97.324219 222.976562 94.113281 220.933594 95.945312 C 215.597656 100.777344 211.195312 106.71875 208.539062 113.433594 C 207.902344 115.105469 210.476562 116.378906 211.378906 114.8125 Z M 211.378906 114.8125 " fill-opacity="1" fill-rule="nonzero"/><path fill="#ffde59" d="M 252.246094 136.386719 C 248.34375 136.253906 244.363281 137.632812 240.753906 138.960938 C 237.011719 140.339844 233.589844 142.222656 230.40625 144.585938 C 229 145.621094 230.59375 147.875 232.105469 147.082031 C 235.289062 145.355469 238.632812 143.816406 242.082031 142.648438 C 245.53125 141.480469 249.113281 141.109375 252.5625 140.046875 C 254.472656 139.464844 254.449219 136.464844 252.246094 136.386719 Z M 252.246094 136.386719 " fill-opacity="1" fill-rule="nonzero"/><path fill="#ffde59" d="M 146.554688 174.121094 C 141.9375 178.765625 137.769531 183.804688 134.132812 189.21875 C 132.570312 191.527344 136.308594 193.96875 137.742188 191.609375 C 140.925781 186.246094 144.5625 181.179688 148.675781 176.507812 C 150.003906 175.023438 148.039062 172.632812 146.554688 174.121094 Z M 146.554688 174.121094 " fill-opacity="1" fill-rule="nonzero"/><path fill="#ffde59" d="M 241.234375 187.363281 C 238.421875 185.160156 235.210938 183.382812 232.183594 181.472656 C 229.183594 179.558594 226.160156 177.382812 222.949219 175.820312 C 221.648438 175.183594 219.738281 176.800781 221.09375 177.96875 C 223.796875 180.332031 226.929688 182.265625 229.875 184.308594 C 232.902344 186.40625 235.898438 188.769531 239.109375 190.574219 C 241.285156 191.765625 243.195312 188.875 241.234375 187.363281 Z M 241.234375 187.363281 " fill-opacity="1" fill-rule="nonzero"/><g fill="#fbfffd" fill-opacity="1"><g transform="translate(101.737344, 258.61343)"><g><path d="M 2.625 0 L 2.625 -30.859375 L 12.578125 -30.859375 L 24.734375 -10.046875 L 25.109375 -10.046875 L 24.828125 -30.859375 L 32.265625 -30.859375 L 32.265625 0 L 23.109375 0 L 10.09375 -21.75 L 9.78125 -21.75 L 10.015625 0 Z M 2.625 0 "/></g></g></g><g fill="#fbfffd" fill-opacity="1"><g transform="translate(136.627391, 258.61343)"><g><path d="M 14.078125 0.65625 C 11.890625 0.65625 9.992188 0.351562 8.390625 -0.25 C 6.785156 -0.863281 5.460938 -1.722656 4.421875 -2.828125 C 3.378906 -3.929688 2.59375 -5.25 2.0625 -6.78125 C 1.53125 -8.3125 1.265625 -10.007812 1.265625 -11.875 C 1.265625 -13.75 1.519531 -15.503906 2.03125 -17.140625 C 2.550781 -18.773438 3.320312 -20.207031 4.34375 -21.4375 C 5.375 -22.675781 6.660156 -23.632812 8.203125 -24.3125 C 9.742188 -25 11.546875 -25.34375 13.609375 -25.34375 C 15.640625 -25.34375 17.410156 -25 18.921875 -24.3125 C 20.429688 -23.632812 21.660156 -22.65625 22.609375 -21.375 C 23.554688 -20.09375 24.21875 -18.578125 24.59375 -16.828125 C 24.96875 -15.085938 25.03125 -13.125 24.78125 -10.9375 L 6.125 -10.75 L 6.125 -14.78125 L 19.828125 -14.96875 L 17.90625 -12.859375 C 18.125 -14.359375 18.066406 -15.597656 17.734375 -16.578125 C 17.410156 -17.554688 16.898438 -18.285156 16.203125 -18.765625 C 15.503906 -19.253906 14.65625 -19.5 13.65625 -19.5 C 12.53125 -19.5 11.585938 -19.203125 10.828125 -18.609375 C 10.066406 -18.015625 9.488281 -17.171875 9.09375 -16.078125 C 8.707031 -14.992188 8.515625 -13.671875 8.515625 -12.109375 C 8.515625 -9.554688 9.007812 -7.703125 10 -6.546875 C 11 -5.390625 12.359375 -4.8125 14.078125 -4.8125 C 14.890625 -4.8125 15.554688 -4.921875 16.078125 -5.140625 C 16.609375 -5.359375 17.035156 -5.644531 17.359375 -6 C 17.691406 -6.363281 17.941406 -6.78125 18.109375 -7.25 C 18.285156 -7.71875 18.40625 -8.21875 18.46875 -8.75 L 25.15625 -7.8125 C 25.09375 -6.71875 24.84375 -5.664062 24.40625 -4.65625 C 23.96875 -3.644531 23.3125 -2.738281 22.4375 -1.9375 C 21.570312 -1.144531 20.453125 -0.515625 19.078125 -0.046875 C 17.703125 0.421875 16.035156 0.65625 14.078125 0.65625 Z M 14.078125 0.65625 "/></g></g></g><g fill="#fbfffd" fill-opacity="1"><g transform="translate(163.005391, 258.61343)"><g><path d="M 0.375 0 L 8.328125 -12.34375 L 0.421875 -24.6875 L 9.171875 -24.6875 L 13 -16.09375 L 13.609375 -16.09375 L 17.390625 -24.6875 L 26.09375 -24.6875 L 18.28125 -12.34375 L 26.140625 0 L 17.390625 0 L 13.5625 -8.5625 L 13 -8.5625 L 9.078125 0 Z M 0.375 0 "/></g></g></g><g fill="#fbfffd" fill-opacity="1"><g transform="translate(189.523696, 258.61343)"><g><path d="M 17.578125 0.65625 C 16.117188 0.65625 14.828125 0.351562 13.703125 -0.25 C 12.578125 -0.863281 11.65625 -1.769531 10.9375 -2.96875 C 10.226562 -4.164062 9.71875 -5.65625 9.40625 -7.4375 L 8.796875 -7.4375 L 8.703125 0 L 2.34375 0 L 2.34375 -33.25 L 9.921875 -33.25 L 9.921875 -25.484375 C 9.921875 -24.703125 9.875 -23.859375 9.78125 -22.953125 C 9.6875 -22.054688 9.5625 -21.128906 9.40625 -20.171875 C 9.25 -19.222656 9.0625 -18.234375 8.84375 -17.203125 L 9.640625 -17.203125 C 10.003906 -19.046875 10.546875 -20.554688 11.265625 -21.734375 C 11.984375 -22.921875 12.890625 -23.8125 13.984375 -24.40625 C 15.078125 -25 16.351562 -25.296875 17.8125 -25.296875 C 19.75 -25.296875 21.429688 -24.796875 22.859375 -23.796875 C 24.296875 -22.804688 25.421875 -21.351562 26.234375 -19.4375 C 27.046875 -17.519531 27.453125 -15.171875 27.453125 -12.390625 C 27.453125 -9.585938 27.035156 -7.21875 26.203125 -5.28125 C 25.378906 -3.351562 24.226562 -1.878906 22.75 -0.859375 C 21.269531 0.148438 19.546875 0.65625 17.578125 0.65625 Z M 14.875 -5.421875 C 15.84375 -5.421875 16.679688 -5.707031 17.390625 -6.28125 C 18.109375 -6.863281 18.660156 -7.675781 19.046875 -8.71875 C 19.441406 -9.757812 19.640625 -10.9375 19.640625 -12.25 C 19.640625 -13.5625 19.457031 -14.738281 19.09375 -15.78125 C 18.738281 -16.820312 18.210938 -17.644531 17.515625 -18.25 C 16.816406 -18.863281 15.96875 -19.171875 14.96875 -19.171875 C 14.375 -19.171875 13.816406 -19.0625 13.296875 -18.84375 C 12.785156 -18.625 12.328125 -18.328125 11.921875 -17.953125 C 11.515625 -17.578125 11.15625 -17.125 10.84375 -16.59375 C 10.53125 -16.070312 10.289062 -15.472656 10.125 -14.796875 C 9.957031 -14.128906 9.875 -13.421875 9.875 -12.671875 L 9.875 -11.96875 C 9.875 -11.09375 9.976562 -10.257812 10.1875 -9.46875 C 10.40625 -8.675781 10.734375 -7.972656 11.171875 -7.359375 C 11.609375 -6.753906 12.128906 -6.28125 12.734375 -5.9375 C 13.347656 -5.59375 14.0625 -5.421875 14.875 -5.421875 Z M 14.875 -5.421875 "/></g></g></g><g fill="#fbfffd" fill-opacity="1"><g transform="translate(218.286931, 258.61343)"><g><path d="M 10.421875 0.65625 C 9.335938 0.65625 8.347656 0.503906 7.453125 0.203125 C 6.566406 -0.0859375 5.785156 -0.53125 5.109375 -1.125 C 4.441406 -1.71875 3.882812 -2.476562 3.4375 -3.40625 C 2.988281 -4.34375 2.644531 -5.453125 2.40625 -6.734375 C 2.175781 -8.015625 2.0625 -9.460938 2.0625 -11.078125 L 2.0625 -24.6875 L 9.640625 -24.6875 L 9.640625 -12.296875 C 9.640625 -11.703125 9.65625 -11.039062 9.6875 -10.3125 C 9.71875 -9.582031 9.835938 -8.863281 10.046875 -8.15625 C 10.265625 -7.457031 10.625 -6.875 11.125 -6.40625 C 11.625 -5.9375 12.328125 -5.703125 13.234375 -5.703125 C 13.984375 -5.703125 14.65625 -5.894531 15.25 -6.28125 C 15.84375 -6.675781 16.351562 -7.25 16.78125 -8 C 17.21875 -8.75 17.546875 -9.660156 17.765625 -10.734375 C 17.984375 -11.804688 18.09375 -13.03125 18.09375 -14.40625 L 18.09375 -24.6875 L 25.625 -24.6875 L 25.625 0 L 19.453125 0 L 19.359375 -8.5625 L 18.703125 -8.5625 C 18.359375 -6.40625 17.851562 -4.648438 17.1875 -3.296875 C 16.519531 -1.941406 15.628906 -0.941406 14.515625 -0.296875 C 13.410156 0.335938 12.046875 0.65625 10.421875 0.65625 Z M 10.421875 0.65625 "/></g></g></g><g fill="#fbfffd" fill-opacity="1"><g transform="translate(246.30186, 258.61343)"><g><path d="M 11.546875 8 C 10.429688 8 9.253906 7.90625 8.015625 7.71875 C 6.785156 7.53125 5.601562 7.238281 4.46875 6.84375 C 3.332031 6.457031 2.3125 5.953125 1.40625 5.328125 L 3.1875 -1.78125 C 4.300781 -0.71875 5.59375 0.046875 7.0625 0.515625 C 8.53125 0.984375 9.898438 1.21875 11.171875 1.21875 C 12.546875 1.21875 13.703125 0.988281 14.640625 0.53125 C 15.578125 0.0820312 16.320312 -0.535156 16.875 -1.328125 C 17.4375 -2.128906 17.84375 -3.050781 18.09375 -4.09375 C 18.34375 -5.132812 18.484375 -6.265625 18.515625 -7.484375 L 18.609375 -11.3125 L 17.8125 -11.3125 C 17.625 -9.257812 17.195312 -7.5625 16.53125 -6.21875 C 15.863281 -4.875 14.988281 -3.890625 13.90625 -3.265625 C 12.832031 -2.648438 11.5625 -2.34375 10.09375 -2.34375 C 8.507812 -2.34375 7.203125 -2.664062 6.171875 -3.3125 C 5.140625 -3.96875 4.34375 -4.800781 3.78125 -5.8125 C 3.226562 -6.832031 2.828125 -7.910156 2.578125 -9.046875 C 2.328125 -10.179688 2.175781 -11.25 2.125 -12.25 C 2.082031 -13.25 2.0625 -14.03125 2.0625 -14.59375 L 2.0625 -24.6875 L 9.59375 -24.6875 L 9.59375 -16.734375 C 9.59375 -16.148438 9.597656 -15.5 9.609375 -14.78125 C 9.628906 -14.0625 9.691406 -13.34375 9.796875 -12.625 C 9.910156 -11.90625 10.097656 -11.242188 10.359375 -10.640625 C 10.617188 -10.035156 10.972656 -9.550781 11.421875 -9.1875 C 11.878906 -8.832031 12.453125 -8.65625 13.140625 -8.65625 C 13.984375 -8.65625 14.671875 -8.910156 15.203125 -9.421875 C 15.734375 -9.929688 16.144531 -10.597656 16.4375 -11.421875 C 16.726562 -12.253906 16.925781 -13.128906 17.03125 -14.046875 C 17.144531 -14.972656 17.203125 -15.84375 17.203125 -16.65625 L 17.203125 -24.6875 L 24.734375 -24.6875 L 24.734375 -7.203125 C 24.734375 -6.203125 24.660156 -5.125 24.515625 -3.96875 C 24.378906 -2.820312 24.140625 -1.675781 23.796875 -0.53125 C 23.460938 0.601562 22.984375 1.675781 22.359375 2.6875 C 21.734375 3.695312 20.9375 4.609375 19.96875 5.421875 C 19 6.234375 17.820312 6.863281 16.4375 7.3125 C 15.050781 7.769531 13.421875 8 11.546875 8 Z M 11.546875 8 "/></g></g></g></svg>