<svg xmlns="http://www.w3.org/2000/svg" xmlns:xlink="http://www.w3.org/1999/xlink" width="1080" zoomAndPan="magnify" viewBox="0 0 810 1439.999935" height="1920" preserveAspectRatio="xMidYMid meet" version="1.0"><defs><g/><clipPath id="f9eb216ef4"><path d="M 180 0.320312 L 189 0.320312 L 189 47 L 180 47 Z M 180 0.320312 " clip-rule="nonzero"/></clipPath><clipPath id="d632ee3669"><path d="M 0.441406 226 L 411.558594 226 L 411.558594 365.839844 L 0.441406 365.839844 Z M 0.441406 226 " clip-rule="nonzero"/></clipPath><clipPath id="db6523c80c"><rect x="0" width="412" y="0" height="140"/></clipPath><clipPath id="b4bc1aee05"><rect x="0" width="412" y="0" height="366"/></clipPath></defs><rect x="-81" width="972" fill="#ffffff" y="-143.999994" height="1727.999922" fill-opacity="1"/><rect x="-81" width="972" fill="#1800ad" y="-143.999994" height="1727.999922" fill-opacity="1"/><g transform="matrix(1, 0, 0, 1, 199, 460)"><g clip-path="url(#b4bc1aee05)"><path fill="#ffde59" d="M 271.941406 91.25 C 269.429688 80.675781 261.9375 71.480469 252.695312 65.933594 C 240.984375 58.917969 226.855469 57.117188 213.394531 57.730469 C 201.824219 58.253906 190.304688 60.339844 179.640625 64.9375 C 160.105469 73.375 145.125 91.816406 146.738281 113.910156 C 147.164062 119.503906 148.683594 125.003906 151.574219 129.792969 C 154.988281 135.386719 159.871094 139.414062 165.132812 143.160156 C 175.417969 150.414062 188.742188 161.980469 184.949219 175.683594 C 184.425781 175.585938 183.90625 175.492188 183.335938 175.398438 C 179.589844 174.734375 178.3125 181.277344 182.105469 182.082031 C 193.101562 184.40625 204.433594 185.449219 215.667969 184.546875 C 217.566406 184.40625 219.9375 183.125 219.746094 180.800781 C 218.703125 168.335938 223.160156 155.820312 232.546875 147.378906 C 237.476562 142.972656 243.261719 139.699219 248.710938 135.953125 C 253.738281 132.492188 258.335938 128.652344 262.269531 124.007812 C 270.140625 115.046875 274.738281 103.148438 271.941406 91.25 Z M 255.824219 119.742188 C 246.675781 129.980469 233.113281 134.675781 224.011719 144.914062 C 216.046875 153.875 211.972656 165.300781 211.972656 177.105469 C 203.722656 177.578125 195.566406 177.292969 187.367188 176.109375 C 190.304688 167.953125 188.03125 158.757812 183.195312 151.503906 C 179.875 146.527344 175.46875 142.6875 170.820312 138.988281 C 166.316406 135.433594 161.480469 131.925781 158.496094 126.851562 C 148.300781 109.644531 157.738281 87.835938 173.003906 77.359375 C 181.914062 71.242188 192.535156 68.019531 203.105469 66.40625 C 215.289062 64.558594 228.46875 64.558594 240.273438 68.589844 C 250.371094 72.046875 259.570312 79.253906 263.410156 89.496094 C 267.4375 100.304688 263.21875 111.492188 255.824219 119.742188 Z M 255.824219 119.742188 " fill-opacity="1" fill-rule="nonzero"/><path fill="#ffde59" d="M 217.800781 126.472656 C 213.582031 125.855469 211.355469 129.316406 209.886719 132.683594 C 209.839844 132.636719 209.839844 132.636719 209.789062 132.589844 C 213.535156 125.714844 215.765625 116.183594 210.644531 109.925781 C 209.648438 108.695312 207.847656 108.789062 206.710938 109.691406 C 203.390625 112.296875 202.867188 116.707031 202.488281 120.6875 C 202.109375 124.386719 202.207031 128.226562 203.628906 131.640625 C 203.152344 132.351562 202.679688 133.015625 202.109375 133.632812 C 200.59375 127.65625 196.609375 121.449219 189.738281 124.527344 C 183.480469 127.375 182.816406 136.570312 188.125 140.601562 C 191.015625 142.78125 194.242188 143.300781 197.371094 142.6875 C 197.703125 151.078125 196.375 159.136719 194.523438 167.292969 C 194.050781 169.28125 196.660156 170.089844 197.511719 168.238281 C 197.605469 168.050781 197.652344 167.90625 197.75 167.71875 C 198.316406 169.898438 201.96875 170.609375 202.726562 167.90625 C 204.386719 161.792969 206.234375 155.722656 208.226562 149.703125 C 209.175781 146.90625 210.121094 144.109375 211.117188 141.3125 C 211.402344 140.503906 211.6875 139.652344 211.972656 138.800781 C 212.636719 138.894531 213.296875 138.941406 214.011719 138.894531 C 217.375 138.65625 220.695312 136.570312 221.691406 133.253906 C 222.589844 130.359375 221.121094 126.945312 217.800781 126.472656 Z M 207.800781 117.988281 C 207.988281 119.835938 207.753906 121.78125 207.230469 123.675781 C 207.277344 123.105469 207.277344 122.539062 207.371094 121.96875 C 207.46875 120.832031 207.515625 119.363281 207.800781 117.988281 Z M 191.160156 132.636719 C 191.824219 130.074219 193.8125 129.933594 195.238281 132.113281 C 196.136719 133.488281 196.609375 135.101562 196.941406 136.761719 C 196.609375 136.808594 196.230469 136.855469 195.851562 136.855469 C 193.339844 136.996094 190.402344 135.574219 191.160156 132.636719 Z M 201.96875 153.449219 C 202.679688 149.132812 202.964844 144.726562 202.917969 140.457031 C 204.527344 139.414062 205.996094 138.085938 207.183594 136.617188 C 207.421875 136.855469 207.703125 137.042969 207.941406 137.234375 C 205.808594 142.542969 203.816406 147.996094 201.96875 153.449219 Z M 217.1875 132.542969 C 216.710938 133.726562 214.910156 134.390625 213.628906 134.390625 C 213.914062 133.773438 214.199219 133.203125 214.484375 132.636719 C 214.816406 131.828125 215.335938 131.167969 216.097656 130.644531 C 217.566406 130.835938 217.945312 131.449219 217.1875 132.542969 Z M 217.1875 132.542969 " fill-opacity="1" fill-rule="nonzero"/><path fill="#ffde59" d="M 214.105469 190.710938 C 211.59375 189.667969 208.652344 189.761719 205.949219 189.621094 C 202.964844 189.476562 199.976562 189.429688 196.992188 189.574219 C 191.679688 189.808594 185.800781 189.90625 180.824219 191.800781 C 178.21875 192.796875 179.6875 196.210938 181.820312 196.542969 C 187.035156 197.300781 192.535156 196.683594 197.84375 197.0625 C 200.402344 197.253906 203.011719 197.441406 205.570312 197.773438 C 208.320312 198.105469 210.929688 198.769531 213.726562 198.390625 C 217.992188 197.820312 217.375 192.085938 214.105469 190.710938 Z M 214.105469 190.710938 " fill-opacity="1" fill-rule="nonzero"/><path fill="#ffde59" d="M 206.898438 202.371094 C 203.4375 200.617188 198.507812 201.328125 194.761719 201.328125 C 190.304688 201.328125 185.945312 201.660156 181.535156 202.277344 C 178.832031 202.65625 179.6875 206.210938 181.914062 206.640625 C 185.089844 207.207031 188.21875 207.730469 191.394531 208.203125 C 190.351562 209.957031 189.832031 211.996094 190.164062 213.84375 C 191.445312 220.765625 200.070312 223.515625 205.667969 219.820312 C 211.023438 216.167969 213.867188 205.832031 206.898438 202.371094 Z M 199.125 212.328125 C 197.464844 212.089844 199.359375 210.714844 200.402344 210.433594 C 201.066406 210.242188 201.542969 209.910156 201.921875 209.484375 C 202.0625 209.484375 202.15625 209.4375 202.109375 209.390625 C 202.867188 211.046875 200.308594 212.519531 199.125 212.328125 Z M 199.125 212.328125 " fill-opacity="1" fill-rule="nonzero"/><g clip-path="url(#f9eb216ef4)"><path fill="#ffde59" d="M 182.152344 44.410156 C 182.816406 47.964844 188.078125 47.398438 188.316406 43.886719 C 188.835938 36.96875 187.554688 29.667969 187.035156 22.746094 C 186.511719 15.917969 186.230469 9.042969 185.28125 2.265625 C 184.902344 -0.4375 180.585938 -0.0585938 180.539062 2.644531 C 180.351562 9.660156 180.871094 16.722656 181.109375 23.738281 C 181.347656 30.519531 180.917969 37.726562 182.152344 44.410156 Z M 182.152344 44.410156 " fill-opacity="1" fill-rule="nonzero"/></g><path fill="#ffde59" d="M 134.933594 70.53125 C 131.804688 68.777344 128.769531 66.929688 125.785156 64.9375 C 119.90625 61.050781 114.3125 56.6875 109.050781 51.996094 C 106.15625 49.386719 101.511719 53.324219 104.402344 56.121094 C 109.761719 61.289062 115.402344 66.074219 121.46875 70.34375 C 124.363281 72.429688 127.347656 74.371094 130.429688 76.21875 C 133.558594 78.117188 136.925781 80.628906 140.621094 80.914062 C 143.417969 81.152344 144.9375 77.59375 143.136719 75.605469 C 141.050781 73.234375 137.683594 72.097656 134.933594 70.53125 Z M 134.933594 70.53125 " fill-opacity="1" fill-rule="nonzero"/><path fill="#ffde59" d="M 130.050781 117.039062 C 133.417969 116.089844 133.179688 111.066406 129.527344 110.875 C 122.558594 110.449219 115.023438 112.582031 108.289062 114.335938 C 104.925781 115.238281 101.652344 116.183594 98.382812 117.324219 C 95.0625 118.460938 91.507812 119.457031 88.664062 121.542969 C 86.339844 123.25 88.664062 126.285156 90.9375 126 C 94.117188 125.621094 97.195312 124.199219 100.277344 123.25 C 103.597656 122.253906 106.914062 121.351562 110.28125 120.59375 C 116.730469 119.125 123.601562 118.839844 130.050781 117.039062 Z M 130.050781 117.039062 " fill-opacity="1" fill-rule="nonzero"/><path fill="#ffde59" d="M 248.664062 47.730469 C 254.636719 37.203125 261.703125 27.769531 270.804688 19.757812 C 274.503906 16.488281 269.382812 10.75 265.730469 14.023438 C 256.203125 22.648438 248.332031 33.269531 243.59375 45.261719 C 242.453125 48.25 247.054688 50.527344 248.664062 47.730469 Z M 248.664062 47.730469 " fill-opacity="1" fill-rule="nonzero"/><path fill="#ffde59" d="M 321.671875 86.269531 C 314.703125 86.035156 307.59375 88.5 301.144531 90.871094 C 294.460938 93.335938 288.34375 96.699219 282.65625 100.921875 C 280.144531 102.769531 282.988281 106.796875 285.691406 105.375 C 291.378906 102.296875 297.351562 99.546875 303.515625 97.460938 C 309.679688 95.375 316.078125 94.710938 322.242188 92.8125 C 325.65625 91.769531 325.609375 86.414062 321.671875 86.269531 Z M 321.671875 86.269531 " fill-opacity="1" fill-rule="nonzero"/><path fill="#ffde59" d="M 132.847656 153.683594 C 124.597656 161.980469 117.15625 170.988281 110.660156 180.660156 C 107.863281 184.785156 114.546875 189.144531 117.109375 184.925781 C 122.796875 175.351562 129.292969 166.296875 136.640625 157.953125 C 139.011719 155.296875 135.503906 151.03125 132.847656 153.683594 Z M 132.847656 153.683594 " fill-opacity="1" fill-rule="nonzero"/><path fill="#ffde59" d="M 302 177.339844 C 296.972656 173.40625 291.238281 170.230469 285.832031 166.816406 C 280.476562 163.402344 275.070312 159.515625 269.335938 156.71875 C 267.011719 155.582031 263.597656 158.472656 266.015625 160.558594 C 270.851562 164.777344 276.445312 168.238281 281.707031 171.890625 C 287.113281 175.636719 292.46875 179.855469 298.207031 183.078125 C 302.09375 185.210938 305.507812 180.042969 302 177.339844 Z M 302 177.339844 " fill-opacity="1" fill-rule="nonzero"/><g clip-path="url(#d632ee3669)"><g transform="matrix(1, 0, 0, 1, 0, 226)"><g clip-path="url(#db6523c80c)"><g fill="#fbfffd" fill-opacity="1"><g transform="translate(0.622917, 108.151649)"><g><path d="M 7.296875 0 L 7.296875 -76.359375 L 26.84375 -76.359375 L 61.546875 -19.09375 L 62.25 -19.09375 L 61.671875 -76.359375 L 76.125 -76.359375 L 76.125 0 L 57.96875 0 L 21.875 -58.890625 L 21.171875 -58.890625 L 21.75 0 Z M 7.296875 0 "/></g></g></g><g fill="#fbfffd" fill-opacity="1"><g transform="translate(84.042053, 108.151649)"><g><path d="M 34.25 1.5 C 29.15625 1.5 24.738281 0.769531 21 -0.6875 C 17.257812 -2.15625 14.113281 -4.238281 11.5625 -6.9375 C 9.019531 -9.632812 7.128906 -12.875 5.890625 -16.65625 C 4.660156 -20.4375 4.046875 -24.601562 4.046875 -29.15625 C 4.046875 -33.78125 4.660156 -38.078125 5.890625 -42.046875 C 7.128906 -46.023438 8.960938 -49.519531 11.390625 -52.53125 C 13.828125 -55.539062 16.875 -57.875 20.53125 -59.53125 C 24.195312 -61.1875 28.421875 -62.015625 33.203125 -62.015625 C 37.753906 -62.015625 41.765625 -61.242188 45.234375 -59.703125 C 48.710938 -58.160156 51.609375 -55.921875 53.921875 -52.984375 C 56.234375 -50.054688 57.890625 -46.507812 58.890625 -42.34375 C 59.890625 -38.175781 60.160156 -33.472656 59.703125 -28.234375 L 13.3125 -27.65625 L 13.3125 -36.21875 L 49.984375 -36.671875 L 46.171875 -31.8125 C 46.554688 -35.90625 46.242188 -39.300781 45.234375 -42 C 44.234375 -44.695312 42.710938 -46.757812 40.671875 -48.1875 C 38.628906 -49.613281 36.140625 -50.328125 33.203125 -50.328125 C 30.046875 -50.328125 27.328125 -49.476562 25.046875 -47.78125 C 22.773438 -46.082031 21.0625 -43.691406 19.90625 -40.609375 C 18.75 -37.523438 18.171875 -33.863281 18.171875 -29.625 C 18.171875 -22.90625 19.578125 -17.890625 22.390625 -14.578125 C 25.203125 -11.265625 29.191406 -9.609375 34.359375 -9.609375 C 36.753906 -9.609375 38.738281 -9.914062 40.3125 -10.53125 C 41.894531 -11.144531 43.207031 -11.988281 44.25 -13.0625 C 45.289062 -14.144531 46.0625 -15.363281 46.5625 -16.71875 C 47.070312 -18.070312 47.398438 -19.476562 47.546875 -20.9375 L 60.75 -18.96875 C 60.4375 -16.113281 59.703125 -13.453125 58.546875 -10.984375 C 57.390625 -8.523438 55.726562 -6.347656 53.5625 -4.453125 C 51.40625 -2.566406 48.726562 -1.101562 45.53125 -0.0625 C 42.332031 0.976562 38.570312 1.5 34.25 1.5 Z M 34.25 1.5 "/></g></g></g><g fill="#fbfffd" fill-opacity="1"><g transform="translate(148.139421, 108.151649)"><g><path d="M 1.5 0 L 21.515625 -30.203125 L 1.5 -60.390625 L 18.390625 -60.390625 L 30.3125 -37.953125 L 31.59375 -37.953125 L 43.390625 -60.390625 L 60.28125 -60.390625 L 40.375 -30.203125 L 60.515625 0 L 43.5 0 L 31.59375 -22.453125 L 30.3125 -22.453125 L 18.390625 0 Z M 1.5 0 "/></g></g></g><g fill="#fbfffd" fill-opacity="1"><g transform="translate(210.038517, 108.151649)"><g><path d="M 40.84375 1.5 C 37.0625 1.5 33.78125 0.726562 31 -0.8125 C 28.226562 -2.351562 25.972656 -4.609375 24.234375 -7.578125 C 22.503906 -10.546875 21.253906 -14.113281 20.484375 -18.28125 L 18.859375 -18.28125 L 19.203125 0 L 6.59375 0 L 6.59375 -81.109375 L 21.296875 -81.109375 L 21.296875 -62.828125 C 21.296875 -60.816406 21.175781 -58.65625 20.9375 -56.34375 C 20.707031 -54.03125 20.414062 -51.617188 20.0625 -49.109375 C 19.71875 -46.609375 19.316406 -44.007812 18.859375 -41.3125 L 20.59375 -41.3125 C 21.445312 -45.625 22.738281 -49.320312 24.46875 -52.40625 C 26.207031 -55.5 28.460938 -57.851562 31.234375 -59.46875 C 34.015625 -61.09375 37.332031 -61.90625 41.1875 -61.90625 C 45.96875 -61.90625 50.132812 -60.648438 53.6875 -58.140625 C 57.238281 -55.628906 59.992188 -52.019531 61.953125 -47.3125 C 63.921875 -42.613281 64.90625 -36.945312 64.90625 -30.3125 C 64.90625 -23.519531 63.898438 -17.753906 61.890625 -13.015625 C 59.890625 -8.273438 57.078125 -4.671875 53.453125 -2.203125 C 49.828125 0.265625 45.625 1.5 40.84375 1.5 Z M 36.21875 -10.53125 C 39.070312 -10.53125 41.519531 -11.335938 43.5625 -12.953125 C 45.601562 -14.578125 47.164062 -16.851562 48.25 -19.78125 C 49.332031 -22.71875 49.875 -26.113281 49.875 -29.96875 C 49.875 -33.820312 49.332031 -37.234375 48.25 -40.203125 C 47.164062 -43.171875 45.617188 -45.484375 43.609375 -47.140625 C 41.609375 -48.804688 39.144531 -49.640625 36.21875 -49.640625 C 34.289062 -49.640625 32.515625 -49.269531 30.890625 -48.53125 C 29.273438 -47.800781 27.882812 -46.78125 26.71875 -45.46875 C 25.5625 -44.15625 24.5625 -42.671875 23.71875 -41.015625 C 22.875 -39.359375 22.238281 -37.640625 21.8125 -35.859375 C 21.382812 -34.085938 21.171875 -32.394531 21.171875 -30.78125 L 21.171875 -29.265625 C 21.171875 -27.109375 21.5 -24.910156 22.15625 -22.671875 C 22.8125 -20.441406 23.773438 -18.421875 25.046875 -16.609375 C 26.316406 -14.796875 27.878906 -13.328125 29.734375 -12.203125 C 31.585938 -11.085938 33.75 -10.53125 36.21875 -10.53125 Z M 36.21875 -10.53125 "/></g></g></g><g fill="#fbfffd" fill-opacity="1"><g transform="translate(279.11093, 108.151649)"><g><path d="M 26.265625 1.5 C 23.335938 1.5 20.753906 1.070312 18.515625 0.21875 C 16.273438 -0.625 14.34375 -1.890625 12.71875 -3.578125 C 11.101562 -5.273438 9.796875 -7.335938 8.796875 -9.765625 C 7.796875 -12.203125 7.039062 -14.984375 6.53125 -18.109375 C 6.03125 -21.234375 5.78125 -24.644531 5.78125 -28.34375 L 5.78125 -60.390625 L 20.484375 -60.390625 L 20.484375 -30.65625 C 20.484375 -28.65625 20.554688 -26.515625 20.703125 -24.234375 C 20.859375 -21.960938 21.265625 -19.820312 21.921875 -17.8125 C 22.578125 -15.8125 23.640625 -14.171875 25.109375 -12.890625 C 26.578125 -11.617188 28.617188 -10.984375 31.234375 -10.984375 C 33.472656 -10.984375 35.457031 -11.539062 37.1875 -12.65625 C 38.925781 -13.78125 40.410156 -15.421875 41.640625 -17.578125 C 42.878906 -19.742188 43.828125 -22.347656 44.484375 -25.390625 C 45.140625 -28.441406 45.546875 -31.894531 45.703125 -35.75 L 45.703125 -60.390625 L 60.28125 -60.390625 L 60.28125 0 L 47.90625 0 L 48.359375 -21.640625 L 46.859375 -21.640625 C 46.015625 -16.160156 44.722656 -11.703125 42.984375 -8.265625 C 41.242188 -4.835938 38.984375 -2.351562 36.203125 -0.8125 C 33.429688 0.726562 30.117188 1.5 26.265625 1.5 Z M 26.265625 1.5 "/></g></g></g><g fill="#fbfffd" fill-opacity="1"><g transform="translate(345.985092, 108.151649)"><g><path d="M 28.46875 19.328125 C 25.613281 19.328125 22.679688 19.035156 19.671875 18.453125 C 16.660156 17.878906 13.820312 16.992188 11.15625 15.796875 C 8.5 14.597656 6.171875 13.070312 4.171875 11.21875 L 9.03125 -1.625 C 11.34375 1.082031 14.210938 3.050781 17.640625 4.28125 C 21.078125 5.507812 24.492188 6.125 27.890625 6.125 C 31.429688 6.125 34.394531 5.523438 36.78125 4.328125 C 39.175781 3.140625 41.085938 1.488281 42.515625 -0.625 C 43.941406 -2.75 45.003906 -5.257812 45.703125 -8.15625 C 46.398438 -11.050781 46.75 -14.234375 46.75 -17.703125 L 47.4375 -28.8125 L 45.703125 -28.8125 C 45.160156 -23.257812 43.984375 -18.785156 42.171875 -15.390625 C 40.359375 -11.992188 38.082031 -9.503906 35.34375 -7.921875 C 32.601562 -6.335938 29.460938 -5.546875 25.921875 -5.546875 C 22.140625 -5.546875 19.015625 -6.296875 16.546875 -7.796875 C 14.078125 -9.304688 12.128906 -11.253906 10.703125 -13.640625 C 9.273438 -16.035156 8.234375 -18.582031 7.578125 -21.28125 C 6.921875 -23.988281 6.492188 -26.578125 6.296875 -29.046875 C 6.109375 -31.515625 6.015625 -33.554688 6.015625 -35.171875 L 6.015625 -60.390625 L 20.59375 -60.390625 L 20.59375 -39.34375 C 20.59375 -37.875 20.628906 -36.210938 20.703125 -34.359375 C 20.785156 -32.515625 20.976562 -30.644531 21.28125 -28.75 C 21.59375 -26.863281 22.132812 -25.109375 22.90625 -23.484375 C 23.675781 -21.867188 24.734375 -20.578125 26.078125 -19.609375 C 27.429688 -18.648438 29.191406 -18.171875 31.359375 -18.171875 C 33.671875 -18.171875 35.632812 -18.804688 37.25 -20.078125 C 38.875 -21.347656 40.207031 -23.082031 41.25 -25.28125 C 42.289062 -27.476562 43.0625 -30.003906 43.5625 -32.859375 C 44.0625 -35.710938 44.351562 -38.679688 44.4375 -41.765625 L 44.4375 -60.390625 L 59.015625 -60.390625 L 59.015625 -17.125 C 59.015625 -14.582031 58.859375 -11.898438 58.546875 -9.078125 C 58.234375 -6.265625 57.671875 -3.507812 56.859375 -0.8125 C 56.054688 1.882812 54.921875 4.445312 53.453125 6.875 C 51.984375 9.3125 50.128906 11.472656 47.890625 13.359375 C 45.660156 15.253906 42.941406 16.722656 39.734375 17.765625 C 36.535156 18.804688 32.78125 19.328125 28.46875 19.328125 Z M 28.46875 19.328125 "/></g></g></g></g></g></g></g></g></svg>